{
.appVersion = "3343";
.formatVersion = 3;
DisplayStrings = (
"8"
);
axes = (
{
name = Curve;
tag = CURV;
}
);
date = "2024-04-29 13:22:09 +0000";
familyName = Shard;
fontMaster = (
{
axesValues = (
0
);
id = m002;
metricValues = (
{
over = 16;
pos = 800;
},
{
over = 16;
pos = 700;
},
{
over = 16;
pos = 500;
},
{
over = -16;
},
{
over = -16;
pos = -200;
},
{
}
);
name = Regular;
},
{
axesValues = (
1000
);
iconName = Bold_Extended;
id = m01;
metricValues = (
{
over = 16;
pos = 800;
},
{
over = 16;
pos = 700;
},
{
over = 16;
pos = 500;
},
{
over = -16;
},
{
over = -16;
pos = -200;
},
{
}
);
name = Curvy;
}
);
glyphs = (
{
glyphname = A;
kernLeft = a;
kernRight = a;
lastChange = "2024-05-10 17:59:18 +0000";
layers = (
{
hints = (
{
horizontal = 1;
place = (499,12);
type = Stem;
},
{
horizontal = 1;
place = (0,11);
type = Stem;
},
{
horizontal = 1;
place = (-10,19);
type = Stem;
},
{
place = (417,40);
type = Stem;
},
{
place = (38,43);
type = Stem;
}
);
layerId = m01;
shapes = (
{
closed = 1;
nodes = (
(467,351,l),
(467,415,o),
(441,511,o),
(306,511,c),
(72,511,l),
(72,396,l),
(82,383,l),
(82,500,l),
(306,500,l),
(356,494,o),
(407,449,o),
(407,383,cs),
(407,364,l),
(38,88,l),
(63,37,o),
(83,-10,o),
(143,-10,c),
(148,-10,l),
(234,-10,o),
(344,85,o),
(407,211,c),
(407,6,l),
(379,6,l),
(348,0,l),
(522,0,l),
(491,6,l),
(467,6,l)
);
},
{
closed = 1;
nodes = (
(407,352,l),
(407,301,l),
(344,175,o),
(296,100,o),
(241,65,cs),
(209,44,o),
(114,0,o),
(51,85,c)
);
}
);
width = 538;
},
{
hints = (
{
horizontal = 1;
place = (499,12);
type = Stem;
},
{
horizontal = 1;
place = (0,11);
type = Stem;
},
{
horizontal = 1;
place = (-10,19);
type = Stem;
},
{
place = (417,40);
type = Stem;
},
{
place = (38,43);
type = Stem;
}
);
layerId = m002;
shapes = (
{
closed = 1;
nodes = (
(457,511,l),
(406,511,o),
(355,511,o),
(304,511,c),
(63,511,l),
(63,396,l),
(73,383,l),
(129,500,l),
(306,500,l),
(356,500,o),
(447,449,o),
(447,383,cs),
(447,363,l),
(38,126,l),
(38,81,o),
(38,35,o),
(38,-10,c),
(174,-10,l),
(295,-10,o),
(416,142,o),
(447,259,c),
(447,26,l),
(391,26,l),
(360,0,l),
(537,0,l),
(506,26,l),
(457,26,l)
);
},
{
closed = 1;
nodes = (
(447,352,l),
(447,301,l),
(428,187,o),
(298,-1,o),
(194,9,cs),
(132,15,o),
(107,45,o),
(94,75,c)
);
}
);
width = 538;
}
);
note = a;
unicode = (65,97);
},
{
glyphname = B;
kernRight = o;
lastChange = "2024-05-10 17:59:18 +0000";
layers = (
{
hints = (
{
horizontal = 1;
place = (691,11);
type = Stem;
},
{
horizontal = 1;
place = (497,13);
type = Stem;
},
{
horizontal = 1;
place = (0,11);
type = Stem;
},
{
horizontal = 1;
place = (-10,13);
type = Stem;
},
{
place = (540,43);
type = Stem;
},
{
place = (82,40);
type = Stem;
}
);
layerId = m01;
shapes = (
{
closed = 1;
nodes = (
(579,337,o),
(538,510,o),
(348,510,c),
(333,510,l),
(250,510,o),
(171,444,o),
(132,353,c),
(132,694,l),
(160,694,l),
(191,700,l),
(17,700,l),
(48,694,l),
(72,694,l),
(72,6,l),
(44,6,l),
(13,0,l),
(187,0,l),
(156,6,l),
(132,6,l),
(132,146,l),
(331,-10,l),
(387,-10,o),
(439,-9,o),
(488,31,cs),
(548,80,o),
(579,164,o),
(579,250,c)
);
},
{
closed = 1;
nodes = (
(562,113,o),
(445,0,o),
(334,1,c),
(132,159,l),
(132,248,l),
(143,388,o),
(216,497,o),
(345,497,cs),
(474,497,o),
(576,385,o),
(569,250,cs)
);
}
);
width = 628;
},
{
hints = (
{
horizontal = 1;
place = (691,11);
type = Stem;
},
{
horizontal = 1;
place = (497,13);
type = Stem;
},
{
horizontal = 1;
place = (0,11);
type = Stem;
},
{
horizontal = 1;
place = (-10,13);
type = Stem;
},
{
place = (540,43);
type = Stem;
},
{
place = (82,40);
type = Stem;
}
);
layerId = m002;
shapes = (
{
closed = 1;
nodes = (
(579,337,o),
(579,423,o),
(579,510,c),
(333,510,l),
(238,510,o),
(134,445,o),
(95,353,c),
(92,692,l),
(145,692,l),
(176,718,l),
(2,718,l),
(33,692,l),
(82,692,l),
(84,26,l),
(31,26,l),
(0,0,l),
(174,0,l),
(143,26,l),
(94,26,l),
(94,145,l),
(256,-10,l),
(312,-10,o),
(398,-21,o),
(480,41,cs),
(540,87,o),
(579,164,o),
(579,250,c)
);
},
{
closed = 1;
nodes = (
(527,99,o),
(460,1,o),
(334,1,c),
(95,159,l),
(95,248,l),
(106,388,o),
(216,497,o),
(345,497,cs),
(460,497,o),
(545,390,o),
(536,254,cs)
);
}
);
width = 628;
}
);
note = b;
unicode = (66,98);
},
{
glyphname = C;
kernLeft = o;
kernRight = c;
lastChange = "2024-05-10 17:59:18 +0000";
layers = (
{
hints = (
{
horizontal = 1;
place = (497,13);
type = Stem;
},
{
horizontal = 1;
place = (-10,12);
type = Stem;
},
{
place = (44,43);
type = Stem;
}
);
layerId = m01;
shapes = (
{
closed = 1;
nodes = (
(455,510,l),
(303,510,l),
(160,510,o),
(45,393,o),
(44,250,c),
(44,164,o),
(86,12,o),
(280,-10,c),
(316,-10,l),
(455,-10,l),
(455,122,l),
(441,149,l),
(441,0,l),
(331,0,l),
(75,1,o),
(86,250,o),
(135,353,cs),
(150,384,o),
(203,464,o),
(311,482,c),
(443,500,l),
(443,391,l),
(455,403,l)
);
}
);
width = 546;
},
{
hints = (
{
horizontal = 1;
place = (497,13);
type = Stem;
},
{
horizontal = 1;
place = (-10,12);
type = Stem;
},
{
place = (44,43);
type = Stem;
}
);
layerId = m002;
shapes = (
{
closed = 1;
nodes = (
(480,510,l),
(303,510,l),
(160,510,o),
(45,393,o),
(44,250,c),
(44,163,o),
(44,77,o),
(44,-10,c),
(316,-10,l),
(480,-10,l),
(480,122,l),
(466,149,l),
(396,0,l),
(331,0,l),
(173,1,o),
(56,64,o),
(56,251,c),
(61,392,o),
(177,500,o),
(319,500,c),
(420,500,l),
(468,391,l),
(480,403,l)
);
}
);
width = 546;
}
);
note = c;
unicode = (67,99);
},
{
glyphname = D;
kernLeft = o;
kernRight = d;
lastChange = "2024-05-10 17:59:18 +0000";
layers = (
{
hints = (
{
horizontal = 1;
place = (691,11);
type = Stem;
},
{
horizontal = 1;
place = (497,13);
type = Stem;
},
{
horizontal = 1;
place = (0,11);
type = Stem;
},
{
horizontal = 1;
place = (-10,13);
type = Stem;
},
{
place = (508,40);
type = Stem;
},
{
place = (46,43);
type = Stem;
}
);
layerId = m01;
shapes = (
{
closed = 1;
nodes = (
(51,164,o),
(82,80,o),
(142,31,cs),
(191,-9,o),
(243,-10,o),
(299,-10,c),
(498,146,l),
(498,6,l),
(470,6,l),
(439,0,l),
(613,0,l),
(582,6,l),
(558,6,l),
(558,694,l),
(586,694,l),
(617,700,l),
(443,700,l),
(474,694,l),
(498,694,l),
(498,353,l),
(459,444,o),
(380,510,o),
(297,510,c),
(282,510,l),
(92,510,o),
(51,337,o),
(51,250,c)
);
},
{
closed = 1;
nodes = (
(54,385,o),
(156,497,o),
(285,497,cs),
(414,497,o),
(487,388,o),
(498,248,c),
(498,159,l),
(296,1,l),
(185,0,o),
(68,113,o),
(61,250,cs)
);
}
);
width = 647;
},
{
hints = (
{
horizontal = 1;
place = (691,11);
type = Stem;
},
{
horizontal = 1;
place = (497,13);
type = Stem;
},
{
horizontal = 1;
place = (0,11);
type = Stem;
},
{
horizontal = 1;
place = (-10,13);
type = Stem;
},
{
place = (508,40);
type = Stem;
},
{
place = (46,43);
type = Stem;
}
);
layerId = m002;
shapes = (
{
closed = 1;
nodes = (
(52,164,o),
(91,87,o),
(151,41,cs),
(233,-21,o),
(319,-10,o),
(375,-10,c),
(537,145,l),
(538,26,l),
(485,26,l),
(454,0,l),
(628,0,l),
(597,26,l),
(548,26,l),
(548,691,l),
(601,691,l),
(632,717,l),
(458,717,l),
(489,691,l),
(538,691,l),
(536,353,l),
(497,445,o),
(393,510,o),
(298,510,c),
(52,510,l),
(52,423,o),
(52,337,o),
(52,250,c)
);
},
{
closed = 1;
nodes = (
(86,390,o),
(171,497,o),
(286,497,cs),
(415,497,o),
(525,388,o),
(536,248,c),
(536,159,l),
(297,1,l),
(171,1,o),
(104,99,o),
(95,254,cs)
);
}
);
width = 647;
}
);
note = d;
unicode = (68,100);
},
{
glyphname = E;
kernLeft = o;
kernRight = e;
lastChange = "2024-05-10 17:59:18 +0000";
layers = (
{
hints = (
{
horizontal = 1;
place = (497,13);
type = Stem;
},
{
horizontal = 1;
place = (212,11);
type = Stem;
},
{
horizontal = 1;
place = (-10,12);
type = Stem;
},
{
place = (44,43);
type = Stem;
}
);
layerId = m01;
shapes = (
{
closed = 1;
nodes = (
(146,510,o),
(31,393,o),
(30,250,c),
(30,94,o),
(164,-10,o),
(289,-10,c),
(302,-10,l),
(490,-10,l),
(490,112,l),
(480,125,l),
(480,0,l),
(304,0,l),
(170,0,o),
(96,86,o),
(83,211,c),
(494,401,l),
(457,450,o),
(391,510,o),
(289,510,c),
(289,510,l)
);
},
{
closed = 1;
nodes = (
(83,222,l),
(72,341,o),
(174,427,o),
(234,450,cs),
(295,473,o),
(428,471,o),
(477,405,c)
);
}
);
width = 514;
},
{
background = {
shapes = (
{
closed = 1;
nodes = (
(160,510,o),
(45,393,o),
(44,250,c),
(44,94,o),
(178,-10,o),
(303,-10,c),
(316,-10,l),
(504,-10,l),
(504,112,l),
(494,125,l),
(494,0,l),
(318,0,l),
(184,0,o),
(110,86,o),
(97,211,c),
(508,401,l),
(471,450,o),
(405,510,o),
(303,510,c),
(303,510,l)
);
},
{
closed = 1;
nodes = (
(97,222,l),
(86,341,o),
(188,427,o),
(248,450,cs),
(309,473,o),
(442,471,o),
(491,405,c)
);
}
);
};
hints = (
{
horizontal = 1;
place = (497,13);
type = Stem;
},
{
horizontal = 1;
place = (212,11);
type = Stem;
},
{
horizontal = 1;
place = (-10,12);
type = Stem;
},
{
place = (44,43);
type = Stem;
}
);
layerId = m002;
shapes = (
{
closed = 1;
nodes = (
(160,510,o),
(45,393,o),
(44,250,c),
(44,163,o),
(44,77,o),
(44,-10,c),
(316,-10,l),
(504,-10,l),
(504,112,l),
(494,125,l),
(433,0,l),
(318,0,l),
(184,0,o),
(69,87,o),
(56,212,c),
(500,370,l),
(500,417,o),
(500,463,o),
(500,510,c),
(303,510,l)
);
},
{
closed = 1;
nodes = (
(56,222,l),
(61,424,o),
(184,500,o),
(319,500,cs),
(363,500,o),
(442,471,o),
(469,439,c)
);
}
);
width = 554;
}
);
note = e;
unicode = (69,101);
},
{
glyphname = F;
kernLeft = f;
kernRight = f;
lastChange = "2024-05-10 17:59:18 +0000";
layers = (
{
hints = (
{
horizontal = 1;
place = (688,12);
type = Stem;
},
{
horizontal = 1;
place = (500,11);
type = Stem;
},
{
horizontal = 1;
place = (0,11);
type = Stem;
},
{
place = (121,40);
type = Stem;
}
);
layerId = m01;
shapes = (
{
closed = 1;
nodes = (
(171,704,o),
(198,714,o),
(337,714,c),
(337,600,l),
(348,614,l),
(348,726,l),
(301,726,l),
(145,726,o),
(110,687,o),
(111,575,c),
(111,510,l),
(25,510,l),
(25,500,l),
(111,500,l),
(111,6,l),
(83,6,l),
(52,0,l),
(226,0,l),
(195,6,l),
(171,6,l),
(171,500,l),
(302,500,l),
(285,516,l),
(261,516,l),
(215,516,l),
(201,516,o),
(171,534,o),
(171,575,cs)
);
}
);
width = 372;
},
{
hints = (
{
horizontal = 1;
place = (688,12);
type = Stem;
},
{
horizontal = 1;
place = (500,11);
type = Stem;
},
{
horizontal = 1;
place = (0,11);
type = Stem;
},
{
place = (121,40);
type = Stem;
}
);
layerId = m002;
shapes = (
{
closed = 1;
nodes = (
(132,597,o),
(131,714,o),
(285,714,c),
(337,600,l),
(348,614,l),
(348,726,l),
(282,725,l),
(196,725,o),
(120,687,o),
(121,575,c),
(121,532,l),
(25,532,l),
(25,500,l),
(121,500,l),
(121,26,l),
(72,26,l),
(41,0,l),
(215,0,l),
(184,26,l),
(131,26,l),
(131,500,l),
(302,500,l),
(285,516,l),
(231,516,l),
(132,516,l),
(132,534,o),
(132,557,o),
(132,575,c)
);
}
);
width = 372;
}
);
note = f;
unicode = (70,102);
},
{
glyphname = G;
kernLeft = g;
kernRight = g;
lastChange = "2024-05-10 17:59:18 +0000";
layers = (
{
hints = (
{
horizontal = 1;
place = (578,8);
type = Stem;
},
{
horizontal = 1;
place = (500,10);
type = Stem;
},
{
horizontal = 1;
place = (130,10);
type = Stem;
},
{
horizontal = 1;
place = (-34,22);
type = Stem;
},
{
place = (571,10);
type = Stem;
},
{
place = (458,44);
type = Stem;
},
{
place = (80,45);
type = Stem;
},
{
place = (63,15);
type = Stem;
}
);
layerId = m01;
shapes = (
{
closed = 1;
nodes = (
(407,526,o),
(429,562,o),
(429,580,c),
(569,586,l),
(541,551,l),
(392,617,o),
(433,491,o),
(438,442,c),
(381,480,l)
);
},
{
closed = 1;
nodes = (
(96,148,l),
(100,126,o),
(137,91,o),
(152,83,cs),
(184,66,o),
(236,55,o),
(289,87,cs),
(359,129,o),
(415,136,o),
(456,123,cs),
(569,87,o),
(584,-96,o),
(526,-142,cs),
(434,-215,o),
(213,-201,o),
(51,-200,c),
(52,-74,l),
(66,-56,l),
(66,-187,l),
(78,-187,l),
(211,-187,o),
(393,-203,o),
(457,-155,cs),
(488,-132,o),
(501,48,o),
(429,98,cs),
(399,118,o),
(356,117,o),
(293,74,cs),
(211,18,o),
(128,80,o),
(93,104,c),
(60,135,o),
(69,130,o),
(50,159,c),
(135,188,l),
(162,170,l)
);
},
{
closed = 1;
nodes = (
(429,454,o),
(364,500,o),
(290,500,cs),
(184,501,o),
(118,421,o),
(111,321,cs),
(106,253,o),
(122,194,o),
(185,163,c),
(329,116,o),
(469,208,o),
(445,355,c)
);
},
{
closed = 1;
nodes = (
(98,197,o),
(66,246,o),
(66,320,cs),
(66,426,o),
(171,510,o),
(279,510,cs),
(358,510,o),
(471,460,o),
(493,346,c),
(521,182,o),
(362,107,o),
(185,151,c)
);
}
);
width = 601;
},
{
hints = (
{
horizontal = 1;
place = (578,8);
type = Stem;
},
{
horizontal = 1;
place = (500,10);
type = Stem;
},
{
horizontal = 1;
place = (130,10);
type = Stem;
},
{
horizontal = 1;
place = (-34,22);
type = Stem;
},
{
place = (571,10);
type = Stem;
},
{
place = (458,44);
type = Stem;
},
{
place = (80,45);
type = Stem;
},
{
place = (63,15);
type = Stem;
}
);
layerId = m002;
shapes = (
{
closed = 1;
nodes = (
(407,526,o),
(413,557,o),
(413,575,c),
(569,586,l),
(537,568,l),
(443,558,o),
(423,526,o),
(391,474,c),
(381,480,l)
);
},
{
closed = 1;
nodes = (
(60,151,l),
(54,83,o),
(122,73,o),
(175,87,cs),
(197,93,o),
(203,87,o),
(447,244,c),
(480,245,o),
(513,247,o),
(546,248,c),
(546,99,o),
(545,-51,o),
(545,-200,c),
(380,-200,o),
(216,-200,o),
(51,-200,c),
(52,-74,l),
(66,-56,l),
(116,-187,l),
(185,-187,l),
(271,-196,o),
(368,-151,o),
(438,-90,cs),
(495,-41,o),
(533,18,o),
(533,68,cs),
(533,129,o),
(522,166,o),
(496,219,c),
(207,47,o),
(164,66,o),
(96,76,c),
(64,85,o),
(43,130,o),
(50,159,c),
(135,188,l),
(144,180,l)
);
},
{
closed = 1;
nodes = (
(429,454,o),
(364,500,o),
(290,500,cs),
(184,501,o),
(118,421,o),
(111,321,cs),
(106,253,o),
(135,194,o),
(185,163,c),
(272,227,o),
(358,291,o),
(445,355,c)
);
},
{
closed = 1;
nodes = (
(98,197,o),
(66,246,o),
(66,320,cs),
(66,426,o),
(171,510,o),
(279,510,cs),
(358,510,o),
(439,490,o),
(493,346,c),
(390,281,o),
(288,216,o),
(185,151,c)
);
}
);
width = 601;
}
);
note = g;
unicode = (71,103);
},
{
glyphname = H;
kernLeft = h;
kernRight = n;
lastChange = "2024-05-10 17:59:18 +0000";
layers = (
{
hints = (
{
horizontal = 1;
place = (690,10);
type = Stem;
},
{
horizontal = 1;
place = (478,23);
type = Stem;
},
{
horizontal = 1;
place = (0,11);
type = Stem;
},
{
place = (438,39);
type = Stem;
},
{
place = (98,40);
type = Stem;
}
);
layerId = m01;
shapes = (
{
closed = 1;
nodes = (
(147,313,l),
(341,503,l),
(436,500,o),
(425,442,o),
(426,326,cs),
(428,6,l),
(400,6,l),
(369,0,l),
(543,0,l),
(512,6,l),
(488,6,l),
(487,353,l),
(487,457,o),
(464,515,o),
(356,516,c),
(341,516,l),
(147,327,l),
(147,694,l),
(175,694,l),
(206,700,l),
(32,700,l),
(63,694,l),
(87,694,l),
(88,6,l),
(60,6,l),
(29,0,l),
(203,0,l),
(172,6,l),
(148,6,l)
);
}
);
width = 581;
},
{
hints = (
{
horizontal = 1;
place = (690,10);
type = Stem;
},
{
horizontal = 1;
place = (478,23);
type = Stem;
},
{
horizontal = 1;
place = (0,11);
type = Stem;
},
{
origin = (0,5);
place = (448,39);
type = Stem;
},
{
place = (98,40);
type = Stem;
}
);
layerId = m002;
shapes = (
{
closed = 1;
nodes = (
(108,313,l),
(336,425,l),
(435,425,o),
(447,368,o),
(447,326,cs),
(448,26,l),
(395,26,l),
(364,0,l),
(538,0,l),
(507,26,l),
(458,26,l),
(459,353,l),
(459,407,o),
(459,462,o),
(459,516,c),
(341,516,l),
(108,332,l),
(108,690,l),
(161,690,l),
(192,716,l),
(18,716,l),
(49,690,l),
(98,690,l),
(98,26,l),
(45,26,l),
(14,0,l),
(188,0,l),
(157,26,l),
(108,26,l)
);
}
);
width = 581;
}
);
note = h;
unicode = (72,104);
},
{
glyphname = I;
kernLeft = i;
kernRight = i;
lastChange = "2024-05-10 17:59:18 +0000";
layers = (
{
hints = (
{
horizontal = 1;
place = (621,83);
type = Stem;
},
{
horizontal = 1;
place = (490,10);
type = Stem;
},
{
horizontal = 1;
place = (0,11);
type = Stem;
},
{
place = (106,40);
type = Stem;
},
{
place = (81,82);
type = Stem;
}
);
layerId = m01;
shapes = (
{
closed = 1;
nodes = (
(107,662,o),
(127,648,o),
(127,621,c),
(127,648,o),
(146,662,o),
(168,662,c),
(146,662,o),
(127,676,o),
(127,704,c),
(127,676,o),
(107,662,o),
(86,662,c)
);
},
{
closed = 1;
nodes = (
(156,510,l),
(184,510,l),
(215,516,l),
(41,516,l),
(72,510,l),
(96,510,l),
(96,6,l),
(68,6,l),
(37,0,l),
(211,0,l),
(180,6,l),
(156,6,l)
);
}
);
width = 246;
},
{
hints = (
{
horizontal = 1;
place = (621,83);
type = Stem;
},
{
horizontal = 1;
place = (490,10);
type = Stem;
},
{
horizontal = 1;
place = (0,11);
type = Stem;
},
{
place = (106,40);
type = Stem;
},
{
place = (81,82);
type = Stem;
}
);
layerId = m002;
shapes = (
{
closed = 1;
nodes = (
(100,648,o),
(113,635,o),
(127,621,c),
(141,635,o),
(154,648,o),
(168,662,c),
(154,676,o),
(141,690,o),
(127,704,c),
(113,690,o),
(100,676,o),
(86,662,c)
);
},
{
closed = 1;
nodes = (
(131,490,l),
(184,490,l),
(215,516,l),
(41,516,l),
(72,490,l),
(121,490,l),
(121,26,l),
(68,26,l),
(37,0,l),
(211,0,l),
(180,26,l),
(131,26,l)
);
}
);
width = 246;
}
);
note = i;
unicode = (73,105);
},
{
glyphname = J;
kernLeft = j;
kernRight = j;
lastChange = "2024-05-10 17:59:18 +0000";
layers = (
{
background = {
shapes = (
{
closed = 1;
nodes = (
(218,676,o),
(198,662,o),
(177,662,c),
(198,662,o),
(218,648,o),
(218,621,c),
(218,648,o),
(237,662,o),
(259,662,c),
(237,662,o),
(218,676,o),
(218,704,c)
);
},
{
closed = 1;
nodes = (
(189,-213,o),
(176,-190,o),
(30,-190,c),
(30,-30,l),
(16,-37,l),
(16,-200,l),
(124,-200,l),
(157,-202,o),
(191,-192,o),
(213,-168,cs),
(239,-137,o),
(248,-117,o),
(248,-78,c),
(249,510,l),
(277,510,l),
(308,516,l),
(134,516,l),
(165,510,l),
(189,510,l),
(189,-67,ls)
);
}
);
};
hints = (
{
horizontal = 1;
place = (621,83);
type = Stem;
},
{
horizontal = 1;
place = (490,10);
type = Stem;
},
{
horizontal = 1;
place = (-202,12);
type = Stem;
},
{
place = (198,40);
type = Stem;
},
{
place = (177,82);
type = Stem;
}
);
layerId = m01;
shapes = (
{
closed = 1;
nodes = (
(189,-203,o),
(191,-190,o),
(30,-190,c),
(30,-30,l),
(16,-37,l),
(16,-200,l),
(124,-200,l),
(153,-201,o),
(182,-197,o),
(211,-170,cs),
(239,-144,o),
(247,-114,o),
(248,-78,c),
(249,510,l),
(277,510,l),
(308,516,l),
(134,516,l),
(165,510,l),
(189,510,l),
(189,-67,ls)
);
},
{
closed = 1;
nodes = (
(218,679,o),
(201,662,o),
(177,662,c),
(201,662,o),
(218,646,o),
(218,621,c),
(218,646,o),
(235,662,o),
(259,662,c),
(235,662,o),
(218,679,o),
(218,704,c)
);
}
);
width = 384;
},
{
hints = (
{
horizontal = 1;
place = (621,83);
type = Stem;
},
{
horizontal = 1;
place = (490,10);
type = Stem;
},
{
horizontal = 1;
place = (-202,12);
type = Stem;
},
{
place = (198,40);
type = Stem;
},
{
place = (177,82);
type = Stem;
}
);
layerId = m002;
shapes = (
{
closed = 1;
nodes = (
(212,-148,o),
(171,-190,o),
(124,-190,c),
(21,-35,l),
(16,-37,l),
(16,-200,l),
(124,-200,l),
(153,-201,o),
(181,-190,o),
(200,-161,cs),
(212,-141,o),
(221,-114,o),
(222,-78,c),
(223,490,l),
(276,490,l),
(307,516,l),
(133,516,l),
(164,490,l),
(213,490,l),
(212,-67,ls)
);
},
{
closed = 1;
nodes = (
(204,690,o),
(191,676,o),
(177,662,c),
(191,648,o),
(204,635,o),
(218,621,c),
(232,635,o),
(245,648,o),
(259,662,c),
(245,676,o),
(232,690,o),
(218,704,c)
);
}
);
width = 384;
}
);
note = j;
unicode = (74,106);
},
{
glyphname = K;
kernLeft = h;
kernRight = k;
lastChange = "2024-05-10 17:59:18 +0000";
layers = (
{
hints = (
{
horizontal = 1;
place = (690,10);
type = Stem;
},
{
horizontal = 1;
place = (490,10);
type = Stem;
},
{
horizontal = 1;
place = (325,7);
type = Stem;
},
{
horizontal = 1;
place = (0,11);
type = Stem;
},
{
place = (98,40);
type = Stem;
}
);
layerId = m01;
shapes = (
{
closed = 1;
nodes = (
(148,215,l),
(239,321,l),
(387,6,l),
(339,6,l),
(308,0,l),
(482,0,l),
(451,6,l),
(421,6,l),
(253,325,l),
(245,325,l),
(411,510,l),
(464,510,l),
(495,516,l),
(321,516,l),
(349,510,l),
(397,510,l),
(326,432,o),
(166,244,o),
(148,306,c),
(147,690,l),
(175,690,l),
(206,696,l),
(32,696,l),
(63,690,l),
(87,690,l),
(88,6,l),
(45,6,l),
(14,0,l),
(218,0,l),
(187,6,l),
(148,6,l)
);
}
);
width = 535;
},
{
hints = (
{
horizontal = 1;
place = (690,10);
type = Stem;
},
{
horizontal = 1;
place = (490,10);
type = Stem;
},
{
horizontal = 1;
place = (325,7);
type = Stem;
},
{
horizontal = 1;
place = (0,11);
type = Stem;
},
{
place = (98,40);
type = Stem;
}
);
layerId = m002;
shapes = (
{
closed = 1;
nodes = (
(109,215,l),
(210,307,l),
(387,26,l),
(339,26,l),
(308,0,l),
(482,0,l),
(451,26,l),
(402,26,l),
(245,330,l),
(237,330,l),
(411,488,l),
(464,488,l),
(495,514,l),
(321,514,l),
(349,488,l),
(358,488,l),
(275,402,o),
(192,316,o),
(109,230,c),
(108,690,l),
(161,690,l),
(192,716,l),
(18,716,l),
(49,690,l),
(98,690,l),
(99,26,l),
(46,26,l),
(15,0,l),
(189,0,l),
(158,26,l),
(109,26,l)
);
}
);
width = 535;
}
);
note = k;
unicode = (75,107);
},
{
glyphname = L;
kernLeft = h;
kernRight = l;
lastChange = "2024-05-10 17:59:18 +0000";
layers = (
{
hints = (
{
horizontal = 1;
place = (690,10);
type = Stem;
},
{
horizontal = 1;
place = (0,11);
type = Stem;
},
{
place = (91,40);
type = Stem;
}
);
layerId = m01;
shapes = (
{
closed = 1;
nodes = (
(141,694,l),
(169,694,l),
(200,700,l),
(26,700,l),
(57,694,l),
(81,694,l),
(81,6,l),
(53,6,l),
(22,0,l),
(196,0,l),
(165,6,l),
(141,6,l)
);
}
);
width = 231;
},
{
hints = (
{
horizontal = 1;
place = (690,10);
type = Stem;
},
{
horizontal = 1;
place = (0,11);
type = Stem;
},
{
place = (91,40);
type = Stem;
}
);
layerId = m002;
shapes = (
{
closed = 1;
nodes = (
(116,690,l),
(169,690,l),
(200,716,l),
(26,716,l),
(57,690,l),
(106,690,l),
(106,26,l),
(53,26,l),
(22,0,l),
(196,0,l),
(165,26,l),
(116,26,l)
);
}
);
width = 231;
}
);
note = l;
unicode = (76,108);
},
{
glyphname = M;
kernLeft = n;
kernRight = n;
lastChange = "2024-05-10 17:59:18 +0000";
layers = (
{
hints = (
{
horizontal = 1;
place = (490,10);
type = Stem;
},
{
horizontal = 1;
place = (478,23);
type = Stem;
},
{
horizontal = 1;
place = (0,11);
type = Stem;
},
{
place = (743,40);
type = Stem;
},
{
place = (425,40);
type = Stem;
},
{
place = (106,40);
type = Stem;
}
);
layerId = m01;
shapes = (
{
closed = 1;
nodes = (
(476,455,o),
(476,516,o),
(371,516,c),
(350,516,l),
(157,332,l),
(157,510,l),
(185,510,l),
(216,516,l),
(42,516,l),
(73,510,l),
(97,510,l),
(96,6,l),
(68,6,l),
(37,0,l),
(211,0,l),
(180,6,l),
(156,6,l),
(157,318,l),
(350,502,l),
(416,500,o),
(416,441,o),
(416,340,cs),
(416,6,l),
(388,6,l),
(357,0,l),
(531,0,l),
(500,6,l),
(476,6,l),
(476,354,l)
);
},
{
closed = 1;
nodes = (
(794,441,o),
(800,516,o),
(689,516,c),
(668,516,l),
(471,335,l),
(471,321,l),
(668,502,l),
(737,500,o),
(734,441,o),
(734,340,cs),
(734,6,l),
(706,6,l),
(675,0,l),
(849,0,l),
(818,6,l),
(794,6,l),
(794,354,l)
);
}
);
width = 877;
},
{
hints = (
{
horizontal = 1;
origin = (0,9);
place = (490,10);
type = Stem;
},
{
horizontal = 1;
origin = (0,9);
place = (490,23);
type = Stem;
},
{
horizontal = 1;
origin = (0,13);
place = (0,11);
type = Stem;
},
{
origin = (1,10);
place = (745,40);
type = Stem;
},
{
origin = (0,22);
place = (427,40);
type = Stem;
},
{
origin = (0,11);
place = (105,40);
type = Stem;
}
);
layerId = m002;
shapes = (
{
closed = 1;
nodes = (
(438,408,o),
(438,462,o),
(438,516,c),
(350,516,l),
(116,332,l),
(116,490,l),
(169,490,l),
(200,516,l),
(26,516,l),
(57,490,l),
(106,490,l),
(105,26,l),
(52,26,l),
(21,0,l),
(195,0,l),
(164,26,l),
(115,26,l),
(116,313,l),
(350,429,l),
(402,427,o),
(427,378,o),
(427,340,cs),
(427,26,l),
(375,26,l),
(344,0,l),
(518,0,l),
(487,26,l),
(438,26,l),
(438,354,l)
);
},
{
closed = 1;
nodes = (
(756,408,o),
(756,462,o),
(756,516,c),
(668,516,l),
(434,335,l),
(434,316,l),
(668,429,l),
(720,427,o),
(745,378,o),
(745,340,cs),
(745,26,l),
(692,26,l),
(661,0,l),
(835,0,l),
(804,26,l),
(756,26,l),
(756,354,l)
);
}
);
width = 877;
}
);
note = m;
unicode = (77,109);
},
{
glyphname = N;
kernLeft = n;
kernRight = n;
lastChange = "2024-05-10 17:59:18 +0000";
layers = (
{
hints = (
{
horizontal = 1;
place = (490,10);
type = Stem;
},
{
horizontal = 1;
place = (487,23);
type = Stem;
},
{
horizontal = 1;
place = (0,11);
type = Stem;
},
{
place = (456,40);
type = Stem;
},
{
place = (106,40);
type = Stem;
}
);
layerId = m01;
shapes = (
{
closed = 1;
nodes = (
(506,455,o),
(506,516,o),
(401,516,c),
(380,516,l),
(157,332,l),
(157,510,l),
(185,510,l),
(216,516,l),
(42,516,l),
(73,510,l),
(97,510,l),
(96,6,l),
(68,6,l),
(37,0,l),
(211,0,l),
(180,6,l),
(156,6,l),
(157,318,l),
(380,502,l),
(446,500,o),
(446,441,o),
(446,340,cs),
(446,6,l),
(418,6,l),
(387,0,l),
(561,0,l),
(530,6,l),
(506,6,l),
(506,354,l)
);
}
);
width = 590;
},
{
hints = (
{
horizontal = 1;
place = (490,10);
type = Stem;
},
{
horizontal = 1;
place = (487,23);
type = Stem;
},
{
horizontal = 1;
place = (0,11);
type = Stem;
},
{
place = (456,40);
type = Stem;
},
{
place = (106,40);
type = Stem;
}
);
layerId = m002;
shapes = (
{
closed = 1;
nodes = (
(467,406,o),
(467,458,o),
(467,510,c),
(379,510,l),
(116,332,l),
(116,500,l),
(165,500,l),
(196,526,l),
(22,526,l),
(53,500,l),
(106,500,l),
(106,26,l),
(57,26,l),
(26,0,l),
(200,0,l),
(169,26,l),
(116,26,l),
(116,313,l),
(379,429,l),
(431,427,o),
(456,378,o),
(456,340,cs),
(457,26,l),
(408,26,l),
(377,0,l),
(551,0,l),
(520,26,l),
(467,26,l),
(467,354,l)
);
}
);
width = 590;
}
);
note = n;
unicode = (78,110);
},
{
glyphname = O;
kernLeft = o;
kernRight = o;
lastChange = "2024-05-10 17:59:18 +0000";
layers = (
{
hints = (
{
horizontal = 1;
place = (497,13);
type = Stem;
},
{
horizontal = 1;
place = (-10,13);
type = Stem;
},
{
place = (519,44);
type = Stem;
},
{
place = (40,44);
type = Stem;
}
);
layerId = m01;
shapes = (
{
closed = 1;
nodes = (
(130,512,o),
(20,402,o),
(20,256,c),
(20,146,o),
(83,-2,o),
(261,-2,c),
(261,-2,l),
(404,-2,o),
(534,94,o),
(534,256,cs),
(534,390,o),
(450,512,o),
(278,512,cs)
);
},
{
closed = 1;
nodes = (
(382,493,o),
(446,461,o),
(481,401,c),
(481,401,l),
(562,245,o),
(386,14,o),
(251,9,c),
(124,16,o),
(65,82,o),
(65,207,c),
(65,346,o),
(142,493,o),
(284,493,c)
);
}
);
width = 554;
},
{
hints = (
{
horizontal = 1;
place = (497,13);
type = Stem;
},
{
horizontal = 1;
place = (-10,13);
type = Stem;
},
{
origin = (1,3);
place = (543,44);
type = Stem;
},
{
origin = (0,2);
place = (40,44);
type = Stem;
}
);
layerId = m002;
shapes = (
{
closed = 1;
nodes = (
(150,512,o),
(40,402,o),
(40,256,c),
(40,171,o),
(40,85,o),
(40,0,c),
(298,-2,l),
(461,0,o),
(554,112,o),
(554,256,cs),
(554,402,o),
(438,512,o),
(298,512,cs)
);
},
{
closed = 1;
nodes = (
(332,500,o),
(386,469,o),
(404,446,c),
(543,256,l),
(543,118,o),
(453,18,o),
(298,16,c),
(168,21,o),
(61,136,o),
(61,256,c),
(61,395,o),
(156,501,o),
(298,501,c)
);
}
);
width = 594;
}
);
note = o;
unicode = (79,111);
},
{
glyphname = P;
kernRight = p;
lastChange = "2024-05-10 17:59:18 +0000";
layers = (
{
hints = (
{
horizontal = 1;
place = (497,13);
type = Stem;
},
{
horizontal = 1;
place = (490,10);
type = Stem;
},
{
horizontal = 1;
place = (-10,14);
type = Stem;
},
{
horizontal = 1;
place = (-203,11);
type = Stem;
},
{
place = (557,43);
type = Stem;
},
{
place = (100,40);
type = Stem;
}
);
layerId = m01;
shapes = (
{
closed = 1;
nodes = (
(599,354,o),
(543,510,o),
(369,510,c),
(353,510,l),
(255,510,o),
(186,444,o),
(150,352,c),
(150,510,l),
(178,510,l),
(209,516,l),
(35,516,l),
(66,510,l),
(90,510,l),
(90,-200,l),
(62,-200,l),
(31,-206,l),
(205,-206,l),
(174,-200,l),
(150,-200,l),
(150,145,l),
(324,-10,l),
(487,-10,o),
(601,82,o),
(599,250,c)
);
},
{
closed = 1;
nodes = (
(589,118,o),
(447,3,o),
(324,3,c),
(150,158,l),
(150,248,l),
(150,381,o),
(233,499,o),
(362,500,cs),
(523,501,o),
(589,372,o),
(589,250,cs)
);
}
);
width = 645;
},
{
hints = (
{
horizontal = 1;
origin = (0,11);
place = (500,13);
type = Stem;
},
{
horizontal = 1;
place = (490,10);
type = Stem;
},
{
horizontal = 1;
place = (-10,14);
type = Stem;
},
{
horizontal = 1;
origin = (0,14);
place = (-200,11);
type = Stem;
},
{
origin = (1,10);
place = (556,43);
type = Stem;
},
{
origin = (0,13);
place = (100,40);
type = Stem;
}
);
layerId = m002;
shapes = (
{
closed = 1;
nodes = (
(599,337,o),
(599,423,o),
(599,510,c),
(328,510,l),
(230,510,o),
(146,444,o),
(110,352,c),
(110,500,l),
(163,500,l),
(194,526,l),
(20,526,l),
(51,500,l),
(100,500,l),
(100,-200,l),
(47,-200,l),
(16,-226,l),
(190,-226,l),
(159,-200,l),
(110,-200,l),
(110,145,l),
(324,-10,l),
(462,-10,o),
(600,94,o),
(599,250,c)
);
},
{
closed = 1;
nodes = (
(550,90,o),
(447,0,o),
(324,0,c),
(110,217,l),
(110,248,l),
(123,417,o),
(208,497,o),
(337,497,cs),
(451,497,o),
(562,378,o),
(556,238,cs)
);
}
);
width = 645;
}
);
note = p;
unicode = (80,112);
},
{
glyphname = Q;
kernLeft = o;
lastChange = "2024-05-10 17:59:18 +0000";
layers = (
{
hints = (
{
horizontal = 1;
place = (496,14);
type = Stem;
},
{
horizontal = 1;
place = (489,10);
type = Stem;
},
{
horizontal = 1;
place = (-10,14);
type = Stem;
},
{
horizontal = 1;
place = (-203,11);
type = Stem;
},
{
place = (505,40);
type = Stem;
},
{
place = (45,43);
type = Stem;
}
);
layerId = m01;
shapes = (
{
closed = 1;
nodes = (
(44,81,o),
(158,-11,o),
(321,-11,c),
(495,144,l),
(495,-200,l),
(471,-200,l),
(440,-206,l),
(614,-206,l),
(583,-200,l),
(555,-200,l),
(555,509,l),
(579,509,l),
(610,515,l),
(436,515,l),
(467,509,l),
(495,509,l),
(495,351,l),
(459,443,o),
(390,509,o),
(292,509,c),
(276,509,l),
(102,509,o),
(46,353,o),
(46,249,c)
);
},
{
closed = 1;
nodes = (
(56,371,o),
(122,500,o),
(283,499,cs),
(412,498,o),
(495,380,o),
(495,247,c),
(495,157,l),
(321,2,l),
(198,2,o),
(56,117,o),
(56,249,cs)
);
}
);
width = 635;
},
{
hints = (
{
horizontal = 1;
place = (496,14);
type = Stem;
},
{
horizontal = 1;
place = (489,10);
type = Stem;
},
{
horizontal = 1;
place = (-10,14);
type = Stem;
},
{
horizontal = 1;
place = (-203,11);
type = Stem;
},
{
place = (505,40);
type = Stem;
},
{
place = (45,43);
type = Stem;
}
);
layerId = m002;
shapes = (
{
closed = 1;
nodes = (
(44,94,o),
(183,-10,o),
(321,-10,c),
(535,145,l),
(535,-200,l),
(486,-200,l),
(455,-226,l),
(629,-226,l),
(598,-200,l),
(545,-200,l),
(545,500,l),
(594,500,l),
(625,526,l),
(451,526,l),
(482,500,l),
(535,500,l),
(535,352,l),
(499,444,o),
(415,510,o),
(317,510,c),
(45,510,l),
(45,423,o),
(45,337,o),
(45,250,c)
);
},
{
closed = 1;
nodes = (
(82,378,o),
(194,497,o),
(308,497,cs),
(437,497,o),
(522,417,o),
(535,248,c),
(535,217,l),
(321,0,l),
(198,0,o),
(94,90,o),
(88,238,cs)
);
}
);
width = 635;
}
);
note = q;
unicode = (81,113);
},
{
glyphname = R;
kernLeft = n;
kernRight = r;
lastChange = "2024-05-10 17:59:18 +0000";
layers = (
{
hints = (
{
horizontal = 1;
place = (490,10);
type = Stem;
},
{
horizontal = 1;
place = (0,11);
type = Stem;
},
{
place = (106,40);
type = Stem;
}
);
layerId = m01;
shapes = (
{
closed = 1;
nodes = (
(416,438,o),
(420,508,o),
(365,508,c),
(300,508,l),
(149,328,l),
(149,510,l),
(173,510,l),
(204,516,l),
(30,516,l),
(61,510,l),
(89,510,l),
(89,6,l),
(65,6,l),
(34,0,l),
(208,0,l),
(177,6,l),
(149,6,l),
(149,313,l),
(304,497,l),
(407,497,o),
(402,435,o),
(402,351,c),
(416,363,l)
);
}
);
width = 446;
},
{
hints = (
{
horizontal = 1;
place = (490,10);
type = Stem;
},
{
horizontal = 1;
place = (0,11);
type = Stem;
},
{
place = (106,40);
type = Stem;
}
);
layerId = m002;
shapes = (
{
closed = 1;
nodes = (
(423,395,o),
(423,492,o),
(423,508,c),
(307,508,l),
(116,328,l),
(116,500,l),
(165,500,l),
(196,526,l),
(22,526,l),
(53,500,l),
(106,500,l),
(106,26,l),
(57,26,l),
(26,0,l),
(200,0,l),
(169,26,l),
(116,26,l),
(116,309,l),
(327,447,l),
(387,447,o),
(409,372,o),
(409,351,c),
(423,363,l)
);
}
);
width = 471;
}
);
note = r;
unicode = (82,114);
},
{
glyphname = S;
kernLeft = s;
kernRight = s;
lastChange = "2024-05-10 17:59:18 +0000";
layers = (
{
hints = (
{
horizontal = 1;
place = (497,12);
type = Stem;
},
{
horizontal = 1;
place = (-10,11);
type = Stem;
},
{
place = (402,39);
type = Stem;
},
{
place = (96,38);
type = Stem;
}
);
layerId = m01;
shapes = (
{
closed = 1;
nodes = (
(416,369,l),
(402,378,l),
(402,506,l),
(271,506,l),
(221,505,o),
(111,500,o),
(78,409,c),
(441,145,l),
(441,26,o),
(402,1,o),
(299,0,c),
(54,0,l),
(54,190,l),
(68,202,l),
(68,148,o),
(68,93,o),
(68,39,c),
(136,39,o),
(205,39,o),
(273,39,c),
(317,39,o),
(387,41,o),
(382,92,c),
(63,408,l),
(106,543,o),
(274,516,o),
(416,516,c)
);
}
);
width = 493;
},
{
hints = (
{
horizontal = 1;
place = (497,12);
type = Stem;
},
{
horizontal = 1;
place = (-10,11);
type = Stem;
},
{
place = (402,39);
type = Stem;
},
{
place = (96,38);
type = Stem;
}
);
layerId = m002;
shapes = (
{
closed = 1;
nodes = (
(414,369,l),
(402,355,l),
(347,505,l),
(265,505,l),
(215,504,o),
(143,475,o),
(120,440,c),
(441,135,l),
(441,89,o),
(441,46,o),
(441,0,c),
(55,0,l),
(54,190,l),
(69,202,l),
(76,146,o),
(86,105,o),
(102,76,cs),
(131,25,o),
(182,10,o),
(273,10,cs),
(339,10,o),
(417,28,o),
(430,129,c),
(63,408,l),
(106,543,o),
(272,516,o),
(414,516,c)
);
}
);
width = 493;
}
);
note = s;
unicode = (83,115);
},
{
glyphname = T;
kernLeft = t;
kernRight = t;
lastChange = "2024-05-10 17:59:18 +0000";
layers = (
{
hints = (
{
horizontal = 1;
place = (500,11);
type = Stem;
},
{
horizontal = 1;
place = (0,12);
type = Stem;
},
{
place = (101,40);
type = Stem;
}
);
layerId = m01;
shapes = (
{
closed = 1;
nodes = (
(150,700,l),
(137,691,l),
(91,657,l),
(91,510,l),
(3,510,l),
(3,500,l),
(91,500,l),
(91,131,ls),
(91,41,o),
(145,0,o),
(271,0,c),
(315,0,l),
(315,164,l),
(301,173,l),
(301,11,l),
(251,11,o),
(150,-4,o),
(150,132,cs),
(150,500,l),
(280,500,l),
(273,516,l),
(237,516,l),
(219,516,l),
(167,516,o),
(150,539,o),
(150,580,c)
);
}
);
width = 345;
},
{
hints = (
{
horizontal = 1;
place = (500,11);
type = Stem;
},
{
horizontal = 1;
place = (0,12);
type = Stem;
},
{
place = (101,40);
type = Stem;
}
);
layerId = m002;
shapes = (
{
closed = 1;
nodes = (
(111,700,l),
(107,700,l),
(102,685,l),
(101,534,l),
(3,534,l),
(3,500,l),
(101,500,l),
(101,131,ls),
(101,41,o),
(162,0,o),
(233,0,c),
(315,0,l),
(315,164,l),
(307,173,l),
(231,12,l),
(182,9,o),
(111,48,o),
(111,132,cs),
(111,500,l),
(280,500,l),
(273,516,l),
(219,516,l),
(111,516,l),
(111,537,o),
(111,559,o),
(111,580,c)
);
}
);
width = 345;
}
);
note = t;
unicode = (84,116);
},
{
glyphname = U;
kernLeft = u;
kernRight = i;
lastChange = "2024-05-10 17:59:18 +0000";
layers = (
{
hints = (
{
horizontal = 1;
place = (490,10);
type = Stem;
},
{
horizontal = 1;
place = (0,11);
type = Stem;
},
{
horizontal = 1;
place = (-10,24);
type = Stem;
},
{
place = (442,40);
type = Stem;
},
{
place = (94,40);
type = Stem;
}
);
layerId = m01;
shapes = (
{
closed = 1;
nodes = (
(432,178,l),
(227,3,l),
(134,3,o),
(144,146,o),
(144,184,cs),
(143,510,l),
(192,510,l),
(223,516,l),
(0,516,l),
(31,510,l),
(84,510,l),
(84,140,l),
(87,74,o),
(127,-10,o),
(227,-10,c),
(432,165,l),
(432,6,l),
(383,6,l),
(352,0,l),
(576,0,l),
(545,6,l),
(492,6,l),
(492,510,l),
(541,510,l),
(572,516,l),
(348,516,l),
(379,510,l),
(432,510,l)
);
}
);
width = 582;
},
{
hints = (
{
horizontal = 1;
place = (490,10);
type = Stem;
},
{
horizontal = 1;
place = (0,11);
type = Stem;
},
{
horizontal = 1;
place = (-10,24);
type = Stem;
},
{
place = (442,40);
type = Stem;
},
{
place = (94,40);
type = Stem;
}
);
layerId = m002;
shapes = (
{
closed = 1;
nodes = (
(442,184,l),
(227,67,l),
(134,67,o),
(104,146,o),
(104,184,cs),
(104,500,l),
(153,500,l),
(184,526,l),
(10,526,l),
(41,500,l),
(94,500,l),
(94,140,l),
(97,74,o),
(127,-10,o),
(227,-10,c),
(442,165,l),
(442,26,l),
(393,26,l),
(362,0,l),
(536,0,l),
(505,26,l),
(452,26,l),
(452,500,l),
(501,500,l),
(532,526,l),
(358,526,l),
(389,500,l),
(442,500,l)
);
}
);
width = 582;
}
);
note = u;
unicode = (85,117);
},
{
glyphname = V;
kernLeft = v;
kernRight = v;
lastChange = "2024-05-10 17:59:18 +0000";
layers = (
{
hints = (
{
horizontal = 1;
place = (490,10);
type = Stem;
},
{
horizontal = 1;
place = (0,21);
target = up;
type = BottomGhost;
},
{
place = (-4,530);
type = Stem;
}
);
layerId = m01;
shapes = (
{
closed = 1;
nodes = (
(292,0,l),
(440,510,l),
(489,510,l),
(520,516,l),
(300,516,l),
(331,510,l),
(384,510,l),
(241,21,l),
(97,510,l),
(146,510,l),
(177,516,l),
(3,516,l),
(34,510,l),
(87,510,l),
(236,0,l)
);
}
);
width = 520;
},
{
hints = (
{
horizontal = 1;
place = (490,10);
type = Stem;
},
{
horizontal = 1;
place = (0,21);
target = up;
type = BottomGhost;
},
{
place = (-4,530);
type = Stem;
}
);
layerId = m002;
shapes = (
{
closed = 1;
nodes = (
(305,0,l),
(444,500,l),
(492,500,l),
(523,526,l),
(349,526,l),
(380,500,l),
(433,500,l),
(297,49,l),
(112,500,l),
(161,500,l),
(192,526,l),
(18,526,l),
(49,500,l),
(102,500,l),
(236,0,l)
);
}
);
width = 529;
}
);
note = v;
unicode = (86,118);
},
{
glyphname = W;
kernLeft = v;
kernRight = v;
lastChange = "2024-05-10 17:59:18 +0000";
layers = (
{
hints = (
{
horizontal = 1;
place = (490,10);
type = Stem;
},
{
horizontal = 1;
place = (0,21);
target = up;
type = BottomGhost;
},
{
place = (-1,775);
type = Stem;
}
);
layerId = m01;
shapes = (
{
closed = 1;
nodes = (
(289,0,l),
(437,510,l),
(486,510,l),
(517,516,l),
(297,516,l),
(328,510,l),
(381,510,l),
(238,21,l),
(94,510,l),
(143,510,l),
(174,516,l),
(0,516,l),
(31,510,l),
(84,510,l),
(233,0,l)
);
},
{
closed = 1;
nodes = (
(533,0,l),
(681,510,l),
(730,510,l),
(761,516,l),
(541,516,l),
(572,510,l),
(625,510,l),
(482,21,l),
(338,510,l),
(387,510,l),
(418,516,l),
(244,516,l),
(275,510,l),
(328,510,l),
(477,0,l)
);
}
);
width = 773;
},
{
hints = (
{
horizontal = 1;
place = (490,10);
type = Stem;
},
{
horizontal = 1;
place = (0,21);
target = up;
type = BottomGhost;
},
{
place = (-1,775);
type = Stem;
}
);
layerId = m002;
shapes = (
{
closed = 1;
nodes = (
(305,0,l),
(444,500,l),
(492,500,l),
(523,526,l),
(349,526,l),
(380,500,l),
(433,500,l),
(297,49,l),
(112,500,l),
(161,500,l),
(192,526,l),
(18,526,l),
(49,500,l),
(102,500,l),
(236,0,l)
);
},
{
closed = 1;
nodes = (
(545,0,l),
(684,500,l),
(732,500,l),
(763,526,l),
(589,526,l),
(620,500,l),
(673,500,l),
(537,49,l),
(352,500,l),
(401,500,l),
(432,526,l),
(258,526,l),
(289,500,l),
(342,500,l),
(476,0,l)
);
}
);
width = 776;
}
);
note = w;
unicode = (87,119);
},
{
glyphname = X;
lastChange = "2024-05-10 17:59:18 +0000";
layers = (
{
hints = (
{
horizontal = 1;
place = (490,10);
type = Stem;
},
{
horizontal = 1;
place = (0,11);
type = Stem;
},
{
place = (18,460);
type = Stem;
}
);
layerId = m01;
shapes = (
{
closed = 1;
nodes = (
(86,6,l),
(58,6,l),
(27,0,l),
(201,0,l),
(170,6,l),
(146,6,l),
(392,510,l),
(420,510,l),
(451,516,l),
(277,516,l),
(308,510,l),
(332,510,l)
);
},
{
closed = 1;
nodes = (
(115,510,l),
(165,510,l),
(196,516,l),
(22,516,l),
(53,510,l),
(103,510,l),
(365,6,l),
(313,6,l),
(282,0,l),
(456,0,l),
(425,6,l),
(377,6,l)
);
}
);
width = 488;
},
{
hints = (
{
horizontal = 1;
place = (490,10);
type = Stem;
},
{
horizontal = 1;
place = (0,11);
type = Stem;
},
{
place = (18,460);
type = Stem;
}
);
layerId = m002;
shapes = (
{
closed = 1;
nodes = (
(102,26,l),
(49,26,l),
(18,0,l),
(192,0,l),
(161,26,l),
(113,26,l),
(390,500,l),
(443,500,l),
(474,526,l),
(300,526,l),
(331,500,l),
(379,500,l)
);
},
{
closed = 1;
nodes = (
(110,500,l),
(163,500,l),
(194,526,l),
(20,526,l),
(51,500,l),
(99,500,l),
(293,29,l),
(305,0,l),
(333,0,l),
(474,0,l),
(445,26,l),
(397,26,l)
);
}
);
width = 488;
}
);
note = x;
unicode = (88,120);
},
{
glyphname = Y;
kernLeft = y;
kernRight = v;
lastChange = "2024-05-10 17:59:18 +0000";
layers = (
{
hints = (
{
horizontal = 1;
place = (490,10);
type = Stem;
},
{
horizontal = 1;
place = (-204,16);
type = Stem;
},
{
place = (-6,530);
type = Stem;
}
);
layerId = m01;
shapes = (
{
closed = 1;
nodes = (
(255,15,l),
(99,510,l),
(150,510,l),
(181,516,l),
(7,516,l),
(38,510,l),
(88,510,l),
(249,0,l),
(239,-42,o),
(222,-84,o),
(196,-118,cs),
(160,-165,o),
(106,-197,o),
(29,-194,c),
(29,-29,l),
(15,-36,l),
(15,-204,l),
(94,-204,l),
(146,-204,o),
(192,-183,o),
(228,-146,cs),
(263,-111,o),
(289,-62,o),
(306,-4,c),
(446,510,l),
(474,510,l),
(505,516,l),
(331,516,l),
(362,510,l),
(386,510,l)
);
}
);
width = 533;
},
{
hints = (
{
horizontal = 1;
place = (490,10);
type = Stem;
},
{
horizontal = 1;
place = (-204,16);
type = Stem;
},
{
place = (-6,530);
type = Stem;
}
);
layerId = m002;
shapes = (
{
closed = 1;
nodes = (
(296,112,l),
(103,490,l),
(156,490,l),
(187,516,l),
(13,516,l),
(44,490,l),
(92,490,l),
(256,1,l),
(247,-26,o),
(237,-52,o),
(228,-79,cs),
(203,-154,o),
(178,-218,o),
(78,-188,c),
(21,-29,l),
(15,-36,l),
(15,-204,l),
(142,-204,l),
(184,-205,o),
(214,-156,o),
(239,-82,cs),
(250,-50,o),
(262,-18,o),
(273,14,c),
(433,490,l),
(486,490,l),
(517,516,l),
(343,516,l),
(374,490,l),
(422,490,l)
);
}
);
width = 533;
}
);
note = y;
unicode = (89,121);
},
{
glyphname = Z;
kernLeft = z;
kernRight = z;
lastChange = "2024-05-10 17:59:18 +0000";
layers = (
{
hints = (
{
horizontal = 1;
place = (490,10);
type = Stem;
},
{
horizontal = 1;
place = (487,12);
type = Stem;
},
{
horizontal = 1;
place = (0,11);
type = Stem;
},
{
place = (38,449);
type = Stem;
}
);
layerId = m01;
shapes = (
{
closed = 1;
nodes = (
(456,150,l),
(456,11,l),
(102,11,l),
(14,22,o),
(356,374,o),
(456,500,c),
(69,500,l),
(69,365,l),
(83,348,l),
(83,490,l),
(288,490,l),
(364,475,o),
(160,175,o),
(39,0,c),
(470,0,l),
(470,139,l)
);
}
);
width = 523;
},
{
hints = (
{
horizontal = 1;
place = (490,10);
type = Stem;
},
{
horizontal = 1;
place = (487,12);
type = Stem;
},
{
horizontal = 1;
place = (0,11);
type = Stem;
},
{
place = (38,449);
type = Stem;
}
);
layerId = m002;
shapes = (
{
closed = 1;
nodes = (
(458,150,l),
(386,11,l),
(157,11,l),
(257,174,o),
(356,337,o),
(456,500,c),
(69,500,l),
(69,365,l),
(80,348,l),
(141,490,l),
(437,490,l),
(304,327,o),
(172,163,o),
(39,0,c),
(468,0,l),
(470,139,l)
);
}
);
width = 523;
}
);
note = z;
unicode = (90,122);
},
{
glyphname = zero;
lastChange = "2024-05-10 15:06:08 +0000";
layers = (
{
hints = (
{
horizontal = 1;
place = (694,16);
type = Stem;
},
{
horizontal = 1;
place = (-10,15);
type = Stem;
},
{
place = (483,37);
type = Stem;
},
{
place = (51,37);
type = Stem;
}
);
layerId = m01;
shapes = (
{
closed = 1;
nodes = (
(51,350,l),
(51,239,o),
(80,143,o),
(128,78,cs),
(169,22,o),
(225,-10,o),
(286,-10,cs),
(424,-10,o),
(520,151,o),
(520,350,cs),
(520,561,o),
(420,710,o),
(286,710,c)
);
},
{
closed = 1;
nodes = (
(403,696,o),
(461,541,o),
(455,350,cs),
(449,155,o),
(386,21,o),
(270,21,cs),
(152,21,o),
(54,173,o),
(63,350,c),
(289,696,l)
);
}
);
width = 571;
},
{
hints = (
{
horizontal = 1;
place = (694,16);
type = Stem;
},
{
horizontal = 1;
place = (-10,15);
type = Stem;
},
{
place = (483,37);
type = Stem;
},
{
place = (51,37);
type = Stem;
}
);
layerId = m002;
shapes = (
{
closed = 1;
nodes = (
(51,350,l),
(51,239,o),
(80,143,o),
(128,78,cs),
(169,22,o),
(225,-10,o),
(286,-10,cs),
(424,-10,o),
(520,151,o),
(520,350,cs),
(520,561,o),
(420,710,o),
(286,710,c)
);
},
{
closed = 1;
nodes = (
(409,694,o),
(516,541,o),
(510,350,cs),
(502,106,o),
(398,5,o),
(282,5,cs),
(164,5,o),
(119,150,o),
(128,327,c),
(295,694,l)
);
}
);
width = 571;
}
);
note = zero;
unicode = 48;
},
{
glyphname = one;
lastChange = "2024-05-10 15:21:11 +0000";
layers = (
{
hints = (
{
horizontal = 1;
place = (581,10);
type = Stem;
},
{
horizontal = 1;
place = (0,11);
type = Stem;
},
{
place = (154,40);
type = Stem;
}
);
layerId = m01;
shapes = (
{
closed = 1;
nodes = (
(204,689,o),
(186,700,o),
(65,700,c),
(65,591,l),
(79,581,l),
(79,688,l),
(114,688,l),
(131,688,o),
(144,668,o),
(144,581,c),
(144,6,l),
(116,6,l),
(85,0,l),
(259,0,l),
(228,6,l),
(204,6,l),
(204,639,l)
);
}
);
width = 309;
},
{
hints = (
{
horizontal = 1;
place = (581,10);
type = Stem;
},
{
horizontal = 1;
place = (0,11);
type = Stem;
},
{
place = (154,40);
type = Stem;
}
);
layerId = m002;
shapes = (
{
closed = 1;
nodes = (
(156,700,o),
(118,700,o),
(80,700,c),
(80,591,l),
(93,581,l),
(135,688,l),
(184,688,l),
(184,666,o),
(184,645,o),
(184,623,c),
(184,26,l),
(135,26,l),
(104,0,l),
(278,0,l),
(247,26,l),
(194,26,l),
(194,700,l)
);
}
);
width = 309;
}
);
note = one;
unicode = 49;
},
{
glyphname = two;
lastChange = "2024-05-10 15:20:12 +0000";
layers = (
{
hints = (
{
horizontal = 1;
place = (699,11);
type = Stem;
},
{
horizontal = 1;
place = (29,30);
type = Stem;
},
{
horizontal = 1;
place = (0,20);
type = Stem;
},
{
horizontal = 1;
place = (-15,35);
type = Stem;
},
{
place = (490,12);
type = Stem;
},
{
place = (417,39);
type = Stem;
}
);
layerId = m01;
shapes = (
{
closed = 1;
nodes = (
(456,644,o),
(342,700,o),
(260,700,c),
(246,700,l),
(78,700,l),
(78,571,l),
(92,560,l),
(92,690,l),
(254,690,l),
(343,690,o),
(389,501,o),
(350,379,cs),
(296,210,o),
(122,256,o),
(48,20,c),
(48,0,l),
(119,0,l),
(502,0,l),
(502,141,l),
(484,155,l),
(484,20,l),
(58,20,l),
(132,256,o),
(456,274,o),
(456,507,c)
);
}
);
width = 546;
},
{
hints = (
{
horizontal = 1;
place = (699,11);
type = Stem;
},
{
horizontal = 1;
place = (29,30);
type = Stem;
},
{
horizontal = 1;
place = (0,20);
type = Stem;
},
{
horizontal = 1;
place = (-15,35);
type = Stem;
},
{
place = (490,12);
type = Stem;
},
{
place = (417,39);
type = Stem;
}
);
layerId = m002;
shapes = (
{
closed = 1;
nodes = (
(456,571,o),
(456,636,o),
(456,700,c),
(246,700,l),
(78,700,l),
(78,571,l),
(95,560,l),
(138,690,l),
(254,690,l),
(343,690,o),
(446,630,o),
(446,507,cs),
(446,325,o),
(156,305,o),
(48,154,c),
(48,0,l),
(119,0,l),
(502,0,l),
(502,141,l),
(484,155,l),
(440,20,l),
(83,20,l),
(150,233,o),
(456,274,o),
(456,507,c)
);
}
);
width = 546;
}
);
note = two;
unicode = 50;
},
{
glyphname = three;
lastChange = "2024-05-10 15:59:59 +0000";
layers = (
{
hints = (
{
horizontal = 1;
place = (689,11);
type = Stem;
},
{
horizontal = 1;
place = (412,13);
type = Stem;
},
{
horizontal = 1;
place = (0,11);
type = Stem;
},
{
place = (466,43);
type = Stem;
},
{
place = (415,42);
type = Stem;
}
);
layerId = m01;
shapes = (
{
closed = 1;
nodes = (
(392,689,o),
(447,633,o),
(447,550,cs),
(447,481,o),
(377,455,o),
(312,452,c),
(168,452,l),
(155,388,l),
(313,388,ls),
(399,388,o),
(499,330,o),
(499,214,cs),
(499,53,o),
(353,11,o),
(294,11,c),
(53,11,l),
(53,151,l),
(35,135,l),
(35,0,l),
(294,0,l),
(354,0,o),
(509,37,o),
(509,217,c),
(509,344,o),
(436,390,o),
(370,413,c),
(433,432,o),
(457,493,o),
(457,555,c),
(457,650,o),
(382,700,o),
(318,700,c),
(69,700,l),
(70,567,l),
(84,558,l),
(84,689,l),
(318,689,l)
);
}
);
width = 551;
},
{
hints = (
{
horizontal = 1;
place = (689,11);
type = Stem;
},
{
horizontal = 1;
place = (412,13);
type = Stem;
},
{
horizontal = 1;
place = (0,11);
type = Stem;
},
{
place = (466,43);
type = Stem;
},
{
place = (415,42);
type = Stem;
}
);
layerId = m002;
shapes = (
{
closed = 1;
nodes = (
(392,689,o),
(447,633,o),
(447,550,cs),
(447,481,o),
(377,429,o),
(312,426,c),
(168,426,l),
(155,410,l),
(313,410,ls),
(399,410,o),
(499,330,o),
(499,214,cs),
(499,53,o),
(353,11,o),
(294,11,c),
(108,11,l),
(60,151,l),
(35,135,l),
(35,0,l),
(509,0,l),
(509,72,o),
(509,145,o),
(509,217,c),
(509,344,o),
(419,395,o),
(353,418,c),
(416,437,o),
(457,493,o),
(457,555,c),
(457,603,o),
(457,652,o),
(457,700,c),
(69,700,l),
(70,567,l),
(91,558,l),
(133,689,l),
(318,689,l)
);
}
);
width = 551;
}
);
note = three;
unicode = 51;
},
{
glyphname = four;
lastChange = "2024-05-10 15:27:42 +0000";
layers = (
{
hints = (
{
horizontal = 1;
place = (689,11);
type = Stem;
},
{
horizontal = 1;
place = (207,31);
type = Stem;
},
{
horizontal = 1;
place = (0,11);
type = Stem;
},
{
place = (374,40);
type = Stem;
}
);
layerId = m01;
shapes = (
{
closed = 1;
nodes = (
(268,217,o),
(91,207,o),
(114,298,c),
(364,697,l),
(364,217,l)
);
},
{
closed = 1;
nodes = (
(364,715,l),
(78,260,l),
(7,158,o),
(267,207,o),
(364,207,c),
(364,6,l),
(336,6,l),
(305,0,l),
(479,0,l),
(448,6,l),
(424,6,l),
(424,207,l),
(547,207,l),
(547,318,l),
(533,326,l),
(533,217,l),
(424,217,l),
(424,689,l),
(424,715,l)
);
}
);
width = 582;
},
{
hints = (
{
horizontal = 1;
place = (689,11);
type = Stem;
},
{
horizontal = 1;
place = (207,31);
type = Stem;
},
{
horizontal = 1;
place = (0,11);
type = Stem;
},
{
place = (374,40);
type = Stem;
}
);
layerId = m002;
shapes = (
{
closed = 1;
nodes = (
(291,217,o),
(179,217,o),
(66,217,c),
(404,568,l),
(404,217,l)
);
},
{
closed = 1;
nodes = (
(404,715,l),
(45,207,l),
(165,207,o),
(284,207,o),
(404,207,c),
(404,26,l),
(355,26,l),
(324,0,l),
(498,0,l),
(467,26,l),
(414,26,l),
(414,207,l),
(547,207,l),
(547,318,l),
(530,326,l),
(492,217,l),
(414,217,l),
(414,689,l),
(414,715,l)
);
}
);
width = 582;
}
);
note = four;
unicode = 52;
},
{
glyphname = five;
lastChange = "2024-05-10 15:36:57 +0000";
layers = (
{
hints = (
{
horizontal = 1;
place = (665,35);
type = Stem;
},
{
horizontal = 1;
place = (429,12);
type = Stem;
},
{
horizontal = 1;
place = (410,14);
type = Stem;
},
{
horizontal = 1;
place = (-1,10);
type = Stem;
},
{
place = (470,43);
type = Stem;
}
);
layerId = m01;
shapes = (
{
closed = 1;
nodes = (
(464,700,l),
(157,700,l),
(83,700,o),
(83,493,o),
(83,341,c),
(95,341,l),
(121,369,o),
(210,444,o),
(297,444,cs),
(388,444,o),
(503,366,o),
(503,218,cs),
(503,57,o),
(347,10,o),
(300,10,c),
(99,10,l),
(59,119,l),
(42,106,l),
(42,0,l),
(295,0,l),
(370,0,o),
(513,60,o),
(513,217,c),
(513,225,l),
(513,352,o),
(425,422,o),
(352,452,cs),
(289,478,o),
(199,490,o),
(93,424,c),
(95,528,o),
(91,690,o),
(160,690,c),
(450,690,l),
(450,578,l),
(464,592,l)
);
}
);
width = 551;
},
{
hints = (
{
horizontal = 1;
place = (665,35);
type = Stem;
},
{
horizontal = 1;
place = (429,12);
type = Stem;
},
{
horizontal = 1;
place = (410,14);
type = Stem;
},
{
horizontal = 1;
place = (-1,10);
type = Stem;
},
{
place = (470,43);
type = Stem;
}
);
layerId = m002;
shapes = (
{
closed = 1;
nodes = (
(464,700,l),
(83,700,l),
(83,603,o),
(83,507,o),
(83,410,c),
(95,410,l),
(138,422,o),
(182,429,o),
(223,429,cs),
(358,429,o),
(470,362,o),
(470,214,cs),
(470,53,o),
(347,10,o),
(300,10,c),
(99,10,l),
(59,119,l),
(42,106,l),
(42,0,l),
(513,0,l),
(513,72,o),
(513,145,o),
(513,217,c),
(513,441,l),
(418,441,o),
(322,441,o),
(227,441,c),
(184,441,o),
(139,435,o),
(97,424,c),
(118,513,o),
(140,601,o),
(161,690,c),
(402,690,l),
(449,578,l),
(464,592,l)
);
}
);
width = 551;
}
);
note = five;
unicode = 53;
},
{
glyphname = six;
lastChange = "2024-05-10 15:38:43 +0000";
layers = (
{
hints = (
{
horizontal = 1;
place = (682,14);
type = Stem;
},
{
horizontal = 1;
place = (411,15);
type = Stem;
},
{
horizontal = 1;
place = (-1,11);
type = Stem;
},
{
place = (510,43);
type = Stem;
},
{
place = (54,43);
type = Stem;
}
);
layerId = m01;
shapes = (
{
closed = 1;
nodes = (
(435,-1,o),
(553,54,o),
(553,221,cs),
(553,342,o),
(459,426,o),
(325,426,cs),
(257,426,o),
(229,420,o),
(160,397,c),
(160,524,o),
(205,690,o),
(322,690,c),
(491,690,l),
(491,574,l),
(505,584,l),
(505,700,l),
(318,700,ls),
(192,700,o),
(48,580,o),
(54,351,c),
(64,146,o),
(205,0,o),
(322,0,c),
(336,-1,l)
);
},
{
closed = 1;
nodes = (
(145,390,o),
(248,411,o),
(309,411,cs),
(431,411,o),
(488,324,o),
(488,212,cs),
(488,56,o),
(426,10,o),
(337,10,cs),
(205,10,o),
(76,157,o),
(67,342,c)
);
}
);
width = 589;
},
{
hints = (
{
horizontal = 1;
place = (682,14);
type = Stem;
},
{
horizontal = 1;
place = (411,15);
type = Stem;
},
{
horizontal = 1;
place = (-1,11);
type = Stem;
},
{
place = (510,43);
type = Stem;
},
{
place = (54,43);
type = Stem;
}
);
layerId = m002;
shapes = (
{
closed = 1;
nodes = (
(435,-1,o),
(553,54,o),
(553,221,cs),
(553,342,o),
(459,426,o),
(325,426,cs),
(257,426,o),
(148,404,o),
(66,354,c),
(66,589,o),
(205,690,o),
(322,690,c),
(439,690,l),
(488,574,l),
(505,584,l),
(505,700,l),
(318,700,ls),
(192,700,o),
(48,580,o),
(54,351,c),
(54,234,o),
(54,117,o),
(54,0,c),
(336,-1,l)
);
},
{
closed = 1;
nodes = (
(145,390,o),
(248,411,o),
(309,411,cs),
(431,411,o),
(543,333,o),
(543,221,cs),
(543,65,o),
(426,10,o),
(337,10,cs),
(217,10,o),
(76,157,o),
(67,342,c)
);
}
);
width = 589;
}
);
note = six;
unicode = 54;
},
{
glyphname = seven;
lastChange = "2024-05-10 15:40:51 +0000";
layers = (
{
hints = (
{
horizontal = 1;
place = (665,35);
type = Stem;
},
{
horizontal = 1;
place = (0,11);
type = Stem;
},
{
place = (26,420);
type = Stem;
}
);
layerId = m01;
shapes = (
{
closed = 1;
nodes = (
(305,690,l),
(348,690,o),
(429,700,o),
(390,575,c),
(175,6,l),
(147,6,l),
(116,0,l),
(290,0,l),
(259,6,l),
(235,6,l),
(411,586,l),
(446,700,o),
(363,700,o),
(335,700,c),
(26,700,l),
(26,587,l),
(40,576,l),
(40,690,l)
);
}
);
width = 452;
},
{
hints = (
{
horizontal = 1;
place = (665,35);
type = Stem;
},
{
horizontal = 1;
place = (0,11);
type = Stem;
},
{
place = (26,420);
type = Stem;
}
);
layerId = m002;
shapes = (
{
closed = 1;
nodes = (
(344,690,l),
(338,665,o),
(332,641,o),
(326,616,c),
(182,26,l),
(136,26,l),
(105,0,l),
(279,0,l),
(248,26,l),
(195,26,l),
(415,616,l),
(425,644,o),
(436,672,o),
(446,700,c),
(26,700,l),
(26,587,l),
(47,576,l),
(93,690,l)
);
}
);
width = 452;
}
);
note = seven;
unicode = 55;
},
{
glyphname = eight;
lastChange = "2024-05-12 03:12:07 +0000";
layers = (
{
hints = (
{
horizontal = 1;
place = (699,11);
type = Stem;
},
{
horizontal = 1;
place = (-10,11);
type = Stem;
},
{
place = (491,38);
type = Stem;
},
{
place = (464,38);
type = Stem;
},
{
place = (83,38);
type = Stem;
},
{
place = (51,39);
type = Stem;
}
);
layerId = m01;
shapes = (
{
closed = 1;
nodes = (
(171,717,o),
(74,650,o),
(74,562,c),
(74,437,o),
(182,418,o),
(219,400,c),
(175,377,o),
(74,303,o),
(74,194,c),
(70,56,o),
(181,-4,o),
(280,-3,c),
(397,-3,o),
(520,29,o),
(520,312,c),
(337,369,l),
(412,394,o),
(493,456,o),
(493,538,cs),
(493,664,o),
(398,717,o),
(284,717,c)
);
},
{
closed = 1;
nodes = (
(216,411,o),
(86,447,o),
(86,563,cs),
(86,642,o),
(190,706,o),
(276,706,cs),
(378,706,o),
(429,622,o),
(429,538,cs),
(429,479,o),
(388,404,o),
(318,375,c)
);
},
{
closed = 1;
nodes = (
(477,315,l),
(477,139,o),
(350,7,o),
(296,8,cs),
(180,10,o),
(84,67,o),
(84,194,cs),
(84,297,o),
(163,371,o),
(246,389,c)
);
}
);
width = 578;
},
{
hints = (
{
horizontal = 1;
place = (699,11);
type = Stem;
},
{
horizontal = 1;
place = (-10,11);
type = Stem;
},
{
place = (491,38);
type = Stem;
},
{
place = (464,38);
type = Stem;
},
{
place = (83,38);
type = Stem;
},
{
place = (51,39);
type = Stem;
}
);
layerId = m002;
shapes = (
{
closed = 1;
nodes = (
(223,710,o),
(153,710,o),
(83,710,c),
(83,600,o),
(83,490,o),
(83,380,c),
(83,250,o),
(83,120,o),
(83,-10,c),
(152,-10,o),
(220,-10,o),
(289,-10,c),
(406,-10,o),
(529,22,o),
(529,305,c),
(346,362,l),
(421,387,o),
(502,449,o),
(502,531,cs),
(502,657,o),
(407,710,o),
(293,710,c)
);
},
{
closed = 1;
nodes = (
(225,404,o),
(121,440,o),
(121,556,cs),
(121,635,o),
(199,699,o),
(285,699,cs),
(387,699,o),
(492,654,o),
(492,531,cs),
(492,450,o),
(397,397,o),
(327,368,c)
);
},
{
closed = 1;
nodes = (
(502,215,l),
(502,39,o),
(400,1,o),
(305,1,cs),
(189,1,o),
(93,60,o),
(93,187,cs),
(93,290,o),
(160,341,o),
(243,359,c)
);
}
);
width = 578;
}
);
note = eight;
unicode = 56;
},
{
glyphname = nine;
lastChange = "2024-05-10 15:55:46 +0000";
layers = (
{
hints = (
{
horizontal = 1;
place = (691,11);
type = Stem;
},
{
horizontal = 1;
place = (275,14);
type = Stem;
},
{
horizontal = 1;
place = (7,14);
type = Stem;
},
{
place = (476,41);
type = Stem;
},
{
place = (35,43);
type = Stem;
}
);
layerId = m01;
shapes = (
{
closed = 1;
nodes = (
(173,702,o),
(35,646,o),
(35,479,cs),
(35,359,o),
(122,288,o),
(251,288,c),
(497,288,l),
(457,76,o),
(351,14,o),
(249,14,c),
(81,17,l),
(81,127,l),
(67,116,l),
(67,4,l),
(254,4,l),
(271,4,l),
(419,4,o),
(517,187,o),
(517,373,c),
(517,543,o),
(454,700,o),
(273,702,c),
(259,702,l)
);
},
{
closed = 1;
nodes = (
(250,381,l),
(172,381,o),
(89,415,o),
(87,496,cs),
(84,650,o),
(202,686,o),
(260,686,cs),
(399,686,o),
(506,579,o),
(506,381,c)
);
}
);
width = 565;
},
{
hints = (
{
horizontal = 1;
place = (691,11);
type = Stem;
},
{
horizontal = 1;
place = (275,14);
type = Stem;
},
{
horizontal = 1;
place = (7,14);
type = Stem;
},
{
place = (476,41);
type = Stem;
},
{
place = (35,43);
type = Stem;
}
);
layerId = m002;
shapes = (
{
closed = 1;
nodes = (
(173,702,o),
(35,646,o),
(35,479,cs),
(35,359,o),
(122,288,o),
(251,288,c),
(476,288,l),
(452,60,o),
(339,14,o),
(249,14,c),
(121,14,l),
(84,127,l),
(67,116,l),
(67,4,l),
(254,4,l),
(517,4,l),
(517,127,o),
(517,250,o),
(517,373,c),
(517,483,o),
(517,592,o),
(517,702,c),
(259,702,l)
);
},
{
closed = 1;
nodes = (
(250,298,l),
(134,298,o),
(45,366,o),
(45,478,cs),
(45,645,o),
(202,686,o),
(260,686,cs),
(383,686,o),
(499,595,o),
(476,298,c)
);
}
);
width = 565;
}
);
note = nine;
unicode = 57;
},
